<svg width="24" height="24" viewBox="0 0 24 24" fill="none" xmlns="http://www.w3.org/2000/svg">
<path fill-rule="evenodd" clip-rule="evenodd" d="M16.1946 1.99976H7.6019C4.24211 1.99976 1.98242 4.37976 1.98242 7.91976V16.0898C1.98242 19.6198 4.24211 21.9998 7.6019 21.9998H16.1946C19.5544 21.9998 21.8042 19.6198 21.8042 16.0898V7.91976C21.8042 4.37976 19.5544 1.99976 16.1946 1.99976Z" fill="#CDCDD0"/>
<path fill-rule="evenodd" clip-rule="evenodd" d="M11.0255 8.18933C11.0255 8.67133 11.413 9.06433 11.8878 9.06433C12.3764 9.06433 12.7649 8.67133 12.7649 8.18933C12.7649 7.70733 12.3764 7.31433 11.8977 7.31433C11.417 7.31433 11.0255 7.70733 11.0255 8.18933ZM12.7549 11.3621C12.7549 10.8801 12.3654 10.4871 11.8877 10.4871C11.41 10.4871 11.0205 10.8801 11.0205 11.3621V15.7821C11.0205 16.2641 11.41 16.6571 11.8877 16.6571C12.3654 16.6571 12.7549 16.2641 12.7549 15.7821V11.3621Z" fill="#16AAEE"/>
</svg>
