<svg width="25" height="24" viewBox="0 0 25 24" fill="none" xmlns="http://www.w3.org/2000/svg">
<path d="M15.2136 5.19C15.5917 4.75428 15.8799 4.24817 16.0618 3.70074C16.2437 3.1533 16.3157 2.57533 16.2736 2C15.113 2.09369 14.0356 2.63956 13.2736 3.52C12.9087 3.94198 12.6322 4.43288 12.4604 4.96364C12.2887 5.49441 12.2251 6.05424 12.2736 6.61C12.8398 6.61472 13.3994 6.4891 13.9092 6.24286C14.419 5.99662 14.8654 5.63637 15.2136 5.19ZM17.7336 12.63C17.7403 11.8637 17.9422 11.1118 18.3201 10.4452C18.698 9.77859 19.2396 9.21926 19.8936 8.82C19.4808 8.22524 18.9352 7.73483 18.2999 7.38767C17.6646 7.04052 16.9571 6.84615 16.2336 6.82C14.6736 6.66 13.2336 7.73 12.4036 7.73C11.5736 7.73 10.4036 6.84 9.10362 6.86C8.25375 6.888 7.42564 7.13578 6.70007 7.57919C5.9745 8.02259 5.37623 8.64648 4.96362 9.39C3.20362 12.45 4.51362 17 6.27362 19.47C7.07362 20.68 8.07362 22.05 9.39362 22C10.7136 21.95 11.1436 21.18 12.6736 21.18C14.2036 21.18 14.6736 22 15.9736 21.97C17.2736 21.94 18.1936 20.73 19.0336 19.52C19.6287 18.6415 20.0935 17.6816 20.4136 16.67C19.6211 16.332 18.9449 15.7693 18.4687 15.0513C17.9924 14.3333 17.7368 13.4916 17.7336 12.63Z" fill="black"/>
</svg>
