<svg width="24" height="24" viewBox="0 0 24 24" fill="none" xmlns="http://www.w3.org/2000/svg">
<path fill-rule="evenodd" clip-rule="evenodd" d="M13.7306 2.18381C13.9089 2.04191 14.133 1.97595 14.3561 2.00793C18.4004 2.45862 21.5405 5.60746 21.9946 9.66467C22.0205 9.89351 21.9558 10.1174 21.8134 10.2972C21.67 10.4771 21.4668 10.59 21.2387 10.615C21.2059 10.619 21.174 10.621 21.1411 10.621C20.7049 10.621 20.3394 10.2922 20.2906 9.85654C19.9261 6.60477 17.4065 4.07951 14.1649 3.71776C13.6948 3.66479 13.3552 3.23908 13.408 2.76841C13.4329 2.53557 13.5474 2.32771 13.7306 2.18381ZM13.4144 6.17047C13.5051 5.70579 13.9423 5.402 14.4183 5.48994C16.5027 5.89666 18.1111 7.51055 18.5184 9.60012C18.6091 10.0658 18.3043 10.5185 17.8412 10.6114C17.7855 10.6214 17.7307 10.6264 17.6759 10.6264C17.2676 10.6264 16.913 10.3336 16.8354 9.93089V9.92989C16.5625 8.53085 15.4859 7.45159 14.0917 7.17978C13.6286 7.08884 13.3238 6.63515 13.4144 6.17047Z" fill="#CDCDD0"/>
<path fill-rule="evenodd" clip-rule="evenodd" d="M17.6049 14.673C16.9566 14.5351 16.4437 14.8349 15.9895 15.0967C15.5245 15.3665 14.6391 16.081 14.1332 15.8972C11.5379 14.8339 9.0969 12.5705 8.04025 9.97624C7.85402 9.45959 8.56808 8.5732 8.83598 8.10552C9.0979 7.65183 9.39269 7.13519 9.25824 6.48563C9.13674 5.90103 7.56521 3.9094 7.00949 3.36478C6.64201 3.00502 6.26755 2.80716 5.88213 2.77418C4.4331 2.71322 2.81476 4.6389 2.53092 5.09958C1.81885 6.08191 1.82383 7.38901 2.54287 8.97392C4.27574 13.231 10.8298 19.6556 15.1201 21.4464C15.9109 21.8151 16.6359 22 17.2862 22C17.9226 22 18.4893 21.8231 18.9762 21.4723C19.3427 21.2615 21.3565 19.5696 21.3027 18.0877C21.2718 17.7099 21.0736 17.3322 20.7171 16.9664C20.1733 16.4078 18.1875 14.7959 17.6049 14.673" fill="#FFFFFF"/>
</svg>
