<svg width="25" height="24" viewBox="0 0 25 24" fill="none" xmlns="http://www.w3.org/2000/svg">
<path d="M21.9999 12C21.9999 7.02944 17.9704 3 12.9999 3C8.02932 3 3.99988 7.02944 3.99988 12C3.99988 16.4922 7.29105 20.2155 11.5936 20.8906V14.6016H9.30847V12H11.5936V10.0172C11.5936 7.76156 12.9373 6.51562 14.993 6.51562C15.9777 6.51562 17.0077 6.69141 17.0077 6.69141V8.90625H15.8728C14.7548 8.90625 14.4061 9.6 14.4061 10.3117V12H16.9022L16.5032 14.6016H14.4061V20.8906C18.7087 20.2155 21.9999 16.4922 21.9999 12Z" fill="#3843FF"/>
<path d="M16.5032 14.6016L16.9022 12H14.4061V10.3117C14.4061 9.6 14.7548 8.90625 15.8728 8.90625H17.0077V6.69141C17.0077 6.69141 15.9777 6.51562 14.993 6.51562C12.9373 6.51562 11.5936 7.76156 11.5936 10.0172V12H9.30847V14.6016H11.5936V20.8906C12.5255 21.0365 13.4743 21.0365 14.4061 20.8906V14.6016H16.5032Z" fill="white"/>
</svg>
