<svg width="24" height="24" viewBox="0 0 24 24" fill="none" xmlns="http://www.w3.org/2000/svg">
<path d="M20.9999 12.2C20.9999 11.46 20.9387 10.92 20.8061 10.36H12.1836V13.7H17.2448C17.1428 14.53 16.5918 15.78 15.3673 16.62L15.3501 16.7318L18.0764 18.8015L18.2652 18.82C19.9999 17.25 20.9999 14.94 20.9999 12.2Z" fill="#3843FF"/>
<path d="M12.1836 21C14.6632 21 16.7448 20.2 18.2652 18.82L15.3673 16.62C14.5918 17.15 13.5509 17.52 12.1836 17.52C9.75506 17.52 7.69385 15.95 6.95908 13.78L6.85138 13.789L4.01658 15.939L3.97951 16.04C5.4897 18.9799 8.59174 21 12.1836 21Z" fill="#3BA935"/>
<path d="M6.95908 13.78C6.76521 13.22 6.65301 12.62 6.65301 12C6.65301 11.38 6.76521 10.78 6.94888 10.22L6.94375 10.1007L4.07342 7.91619L3.97951 7.95996C3.35709 9.17998 2.99994 10.55 2.99994 12C2.99994 13.45 3.35709 14.82 3.97951 16.04L6.95908 13.78Z" fill="#FEA800"/>
<path d="M12.1836 6.47998C13.9081 6.47998 15.0713 7.20997 15.7346 7.82001L18.3264 5.34C16.7346 3.89 14.6632 3 12.1836 3C8.59174 3 5.4897 5.01998 3.97951 7.95996L6.94888 10.22C7.69385 8.05 9.75506 6.47998 12.1836 6.47998Z" fill="#E3524F"/>
</svg>
