<svg width="25" height="24" viewBox="0 0 25 24" fill="none" xmlns="http://www.w3.org/2000/svg">
<path fill-rule="evenodd" clip-rule="evenodd" d="M22.5 12.0048C22.5 17.5137 18.0116 22 12.5 22C6.98842 22 2.5 17.5137 2.5 12.0048C2.5 6.48625 6.98842 2 12.5 2C18.0116 2 22.5 6.48625 22.5 12.0048Z" fill="#CDCDD0"/>
<path fill-rule="evenodd" clip-rule="evenodd" d="M16.5 12.0049C16.5 12.2576 16.4205 12.5113 16.2614 12.7145C16.2315 12.7543 16.0923 12.9186 15.983 13.0255L15.9233 13.0838C15.0881 13.9694 13.0099 15.3011 11.956 15.7278C11.956 15.7375 11.3295 15.9913 11.0312 16H10.9915C10.5341 16 10.1065 15.7482 9.88778 15.34C9.76847 15.1154 9.65909 14.4642 9.64915 14.4554C9.55966 13.8712 9.5 12.9769 9.5 11.9951C9.5 10.9657 9.55966 10.0316 9.66903 9.45808C9.66903 9.44836 9.77841 8.92345 9.84801 8.74848C9.95739 8.49672 10.1562 8.2819 10.4048 8.14581C10.6037 8.04957 10.8125 8 11.0312 8C11.2599 8.01069 11.6875 8.15553 11.8565 8.22357C12.9702 8.65128 15.098 10.051 15.9134 10.9064C16.0526 11.0425 16.2017 11.2087 16.2415 11.2467C16.4105 11.4605 16.5 11.723 16.5 12.0049Z" fill="#040415"/>
</svg>
