<svg width="39" height="38" viewBox="0 0 39 38" fill="none" xmlns="http://www.w3.org/2000/svg">
<g clip-path="url(#clip0_66_1886)">
<path d="M38.1259 12.1027C37.3421 8.39055 34.4111 3.99205 29.8276 3.10707C28.7019 2.90133 27.5453 2.9367 26.4342 3.21084C25.3231 3.48498 24.2828 3.99166 23.3819 4.69742C22.3575 5.46551 21.5267 6.4622 20.9557 7.60809C20.3846 8.75398 20.089 10.0174 20.0924 11.2977C20.0959 12.578 20.3983 13.8399 20.9756 14.9826C21.5529 16.1254 22.389 17.1176 23.4175 17.8802C24.4749 18.7043 25.7204 19.253 27.0421 19.4771C28.3639 19.7011 29.7206 19.5935 30.9905 19.1638C31.0521 19.1416 31.1182 19.1349 31.183 19.1446C31.2478 19.1542 31.3092 19.1798 31.3616 19.2191C31.4153 19.2594 31.4581 19.3125 31.4862 19.3734C31.5143 19.4344 31.5268 19.5015 31.5225 19.5685C31.1517 27.7741 23.7928 30.9821 22.3212 31.542C22.0906 31.6296 21.8966 31.793 21.7713 32.0055C21.6459 32.2179 21.5966 32.4667 21.6315 32.7108C21.6315 32.7108 21.8191 34.0886 21.8194 34.0904C21.8447 34.2527 21.9057 34.4073 21.9982 34.5431C22.0907 34.6788 22.2122 34.7922 22.354 34.8751C22.4957 34.958 22.6542 35.0083 22.8178 35.0223C22.9814 35.0363 23.1461 35.0137 23.3 34.9561C40.0933 28.1387 38.8936 15.7403 38.1259 12.1027ZM22.9793 33.8042L22.8187 32.6233C24.5709 31.9419 32.3113 28.437 32.7097 19.6222C32.7231 19.3623 32.6723 19.103 32.5618 18.8673C32.4514 18.6315 32.2847 18.4266 32.0764 18.2704C31.8681 18.1143 31.6247 18.0118 31.3674 17.9719C31.1102 17.932 30.8471 17.9559 30.6013 18.0417C29.5168 18.4066 28.3586 18.4967 27.2308 18.3038C26.1029 18.1109 25.0405 17.641 24.1389 16.9364C23.2554 16.2845 22.5367 15.4347 22.0404 14.4553C21.5442 13.4758 21.284 12.3938 21.2809 11.2957C21.2777 10.1977 21.5317 9.11421 22.0223 8.13191C22.513 7.14962 23.2268 6.29581 24.1066 5.63882C24.8738 5.03534 25.7604 4.60156 26.7077 4.36615C27.655 4.13074 28.6415 4.09906 29.602 4.27319C33.6538 5.05575 36.258 9.00746 36.9633 12.3482C37.6809 15.7486 38.7873 27.3237 22.9796 33.8045L22.9793 33.8042Z" fill="black"/>
<path d="M26.4151 6.53182C26.3423 6.55983 26.2757 6.6019 26.2192 6.65563C26.1627 6.70937 26.1173 6.77371 26.0856 6.84499C26.0539 6.91626 26.0366 6.99307 26.0347 7.07104C26.0327 7.14901 26.0461 7.2266 26.0741 7.29939C26.1021 7.37217 26.1442 7.43873 26.1979 7.49526C26.2517 7.55178 26.316 7.59717 26.3873 7.62883C26.4585 7.6605 26.5354 7.67781 26.6133 7.67978C26.6913 7.68176 26.7689 7.66836 26.8417 7.64035C26.8639 7.63144 29.0522 6.81355 30.3249 8.38788C30.3739 8.44856 30.4344 8.49899 30.5029 8.53629C30.5715 8.57359 30.6466 8.59704 30.7242 8.60528C30.8018 8.61352 30.8802 8.6064 30.9551 8.58433C31.0299 8.56226 31.0996 8.52567 31.1603 8.47664C31.221 8.42762 31.2714 8.36712 31.3087 8.29861C31.346 8.23009 31.3695 8.1549 31.3777 8.07732C31.386 7.99975 31.3788 7.92131 31.3568 7.84649C31.3347 7.77166 31.2981 7.70192 31.2491 7.64124C29.4384 5.40221 26.5377 6.48461 26.4151 6.53182ZM10.2339 3.10707C9.10812 2.90133 7.95152 2.9367 6.84042 3.21084C5.72933 3.48498 4.68901 3.99166 3.78814 4.69742C2.7638 5.46551 1.93299 6.4622 1.3619 7.60809C0.790816 8.75398 0.495227 10.0174 0.498687 11.2977C0.502147 12.578 0.80456 13.8399 1.38183 14.9826C1.95911 16.1254 2.79529 17.1176 3.82376 17.8802C4.88114 18.7043 6.1266 19.253 7.44836 19.4771C8.77013 19.7011 10.1268 19.5935 11.3967 19.1638C11.4583 19.1416 11.5245 19.1349 11.5893 19.1446C11.6541 19.1542 11.7154 19.1798 11.7678 19.2191C11.8215 19.2594 11.8643 19.3125 11.8924 19.3734C11.9205 19.4344 11.933 19.5015 11.9287 19.5685C11.5579 27.7741 4.19901 30.9821 2.7274 31.542C2.4968 31.6296 2.30287 31.793 2.17753 32.0055C2.05218 32.2179 2.00289 32.4667 2.03776 32.7108C2.03776 32.7108 2.22539 34.0886 2.22568 34.0904C2.25092 34.2527 2.31199 34.4073 2.40445 34.5431C2.49691 34.6788 2.61843 34.7922 2.76021 34.8751C2.90198 34.958 3.06044 35.0083 3.22407 35.0223C3.3877 35.0363 3.5524 35.0137 3.7062 34.9561C20.4995 28.1387 19.2999 15.7403 18.5321 12.1027C17.7484 8.39055 14.8173 3.99205 10.2339 3.10707ZM3.38557 33.8045L3.22437 32.6233C4.97682 31.9419 12.7172 28.437 13.1157 19.6222C13.129 19.3623 13.0782 19.103 12.9678 18.8673C12.8574 18.6315 12.6907 18.4266 12.4824 18.2704C12.2741 18.1143 12.0306 18.0118 11.7734 17.9719C11.5161 17.932 11.253 17.9559 11.0072 18.0417C9.92274 18.4066 8.7646 18.4967 7.63671 18.3038C6.50881 18.1109 5.44644 17.641 4.54487 16.9364C3.66134 16.2845 2.94267 15.4347 2.44639 14.4553C1.95011 13.4758 1.68999 12.3938 1.68684 11.2957C1.6837 10.1977 1.93762 9.11421 2.42828 8.13191C2.91894 7.14962 3.63273 6.29581 4.51251 5.63882C5.27975 5.03534 6.16633 4.60156 7.11366 4.36615C8.06099 4.13074 9.04748 4.09906 10.008 4.27319C14.0597 5.05575 16.6639 9.00746 17.3693 12.3482C18.0868 15.7486 19.1933 27.3237 3.38557 33.8045Z" fill="black"/>
<path d="M6.82138 6.53187C6.7486 6.55988 6.68204 6.60195 6.62551 6.65569C6.56899 6.70942 6.5236 6.77376 6.49193 6.84504C6.46027 6.91631 6.44296 6.99313 6.44099 7.07109C6.43901 7.14906 6.45241 7.22665 6.48042 7.29944C6.50844 7.37223 6.55051 7.43878 6.60424 7.49531C6.65798 7.55184 6.72232 7.59723 6.79359 7.62889C6.86487 7.66055 6.94168 7.67786 7.01965 7.67984C7.09761 7.68181 7.17521 7.66841 7.24799 7.6404C7.27026 7.63149 9.45853 6.8136 10.7312 8.38793C10.8325 8.507 10.9757 8.58261 11.1312 8.59913C11.2867 8.61565 11.4426 8.57182 11.5666 8.4767C11.6273 8.4277 11.6777 8.36723 11.715 8.29874C11.7523 8.23025 11.7758 8.15508 11.784 8.07753C11.7923 7.99998 11.7851 7.92157 11.7631 7.84677C11.741 7.77197 11.7044 7.70224 11.6554 7.64159C9.84476 5.40226 6.94399 6.48467 6.82138 6.53187Z" fill="black"/>
</g>
<defs>
<clipPath id="clip0_66_1886">
<rect width="38" height="38" fill="white" transform="translate(0.5)"/>
</clipPath>
</defs>
</svg>
