<svg width="42" height="42" viewBox="0 0 42 42" fill="none" xmlns="http://www.w3.org/2000/svg">
<path d="M0.5 8C0.5 3.85786 3.85786 0.5 8 0.5H34C38.1421 0.5 41.5 3.85786 41.5 8V34C41.5 38.1421 38.1421 41.5 34 41.5H8C3.85786 41.5 0.5 38.1421 0.5 34V8Z" fill="#C6D4F1"/>
<path d="M0.5 8C0.5 3.85786 3.85786 0.5 8 0.5H34C38.1421 0.5 41.5 3.85786 41.5 8V34C41.5 38.1421 38.1421 41.5 34 41.5H8C3.85786 41.5 0.5 38.1421 0.5 34V8Z" stroke="#A0B6EA"/>
<path opacity="0.4" d="M34.3196 13.0266C34.3462 13.3466 34.3196 13.6799 34.2396 14.0132L29.7462 32.0532C29.4262 33.3998 28.2263 34.3332 26.8396 34.3332H9.31957C7.30624 34.3332 5.87959 32.3599 6.46626 30.4266L12.0796 12.3865C12.4662 11.1332 13.6263 10.2799 14.9329 10.2799H31.3329C32.6129 10.2799 33.6529 11.0399 34.0929 12.1066C34.2263 12.3866 34.2929 12.7066 34.3196 13.0266Z" fill="#254EDB"/>
<path d="M35.6534 31.16C35.7867 32.88 34.4267 34.3333 32.7067 34.3333H26.8401C28.2268 34.3333 29.4267 33.4 29.7467 32.0533L34.2401 14.0133C34.3201 13.68 34.3467 13.3467 34.3201 13.0267L34.3334 13L35.6534 31.16Z" fill="#254EDB"/>
<path d="M17.9065 14.5066C17.8265 14.5066 17.7465 14.4933 17.6665 14.4799C17.1332 14.3466 16.7999 13.8133 16.9332 13.2666L18.3198 7.50664C18.4532 6.97331 18.9865 6.65332 19.5332 6.77332C20.0665 6.90666 20.3999 7.43995 20.2665 7.98662L18.8799 13.7466C18.7732 14.2 18.3599 14.5066 17.9065 14.5066Z" fill="#254EDB"/>
<path d="M26.8399 14.52C26.7733 14.52 26.6932 14.52 26.6266 14.4933C26.0932 14.3733 25.7466 13.8399 25.8533 13.3066L27.1066 7.51998C27.2266 6.97331 27.7599 6.63996 28.2932 6.74662C28.8266 6.86662 29.1732 7.39998 29.0666 7.93331L27.8132 13.7199C27.7199 14.1999 27.3066 14.52 26.8399 14.52Z" fill="#254EDB"/>
<path d="M25.9333 22H15.2666C14.7199 22 14.2666 21.5467 14.2666 21C14.2666 20.4533 14.7199 20 15.2666 20H25.9333C26.4799 20 26.9333 20.4533 26.9333 21C26.9333 21.5467 26.4799 22 25.9333 22Z" fill="#254EDB"/>
<path d="M24.6 27.3334H13.9333C13.3867 27.3334 12.9333 26.88 12.9333 26.3334C12.9333 25.7867 13.3867 25.3334 13.9333 25.3334H24.6C25.1467 25.3334 25.6 25.7867 25.6 26.3334C25.6 26.88 25.1467 27.3334 24.6 27.3334Z" fill="#254EDB"/>
</svg>
