<svg width="24" height="24" viewBox="0 0 24 24" fill="none" xmlns="http://www.w3.org/2000/svg">
<path fill-rule="evenodd" clip-rule="evenodd" d="M16.1887 1.99976H7.59694C4.23814 1.99976 1.98242 4.37776 1.98242 7.91676V16.0838C1.98242 19.6218 4.23814 21.9998 7.59694 21.9998H16.1877C19.5465 21.9998 21.8042 19.6218 21.8042 16.0838V7.91676C21.8042 4.37776 19.5475 1.99976 16.1887 1.99976Z" fill="#CDCDD0"/>
<path fill-rule="evenodd" clip-rule="evenodd" d="M11.2134 11.2486H16.8627C17.269 11.2486 17.606 11.5886 17.606 11.9986V13.8486C17.606 14.2686 17.269 14.5986 16.8627 14.5986C16.4464 14.5986 16.1193 14.2686 16.1193 13.8486V12.7486H14.8012V13.8486C14.8012 14.2686 14.4642 14.5986 14.0579 14.5986C13.6416 14.5986 13.3146 14.2686 13.3146 13.8486V12.7486H11.2134C10.8963 13.8186 9.92503 14.5986 8.76545 14.5986C7.33829 14.5986 6.17871 13.4386 6.17871 11.9986C6.17871 10.5686 7.33829 9.39856 8.76545 9.39856C9.92503 9.39856 10.8963 10.1786 11.2134 11.2486ZM7.66534 11.9986C7.66534 12.6086 8.16089 13.0986 8.76545 13.0986C9.36011 13.0986 9.85565 12.6086 9.85565 11.9986C9.85565 11.3886 9.36011 10.8986 8.76545 10.8986C8.16089 10.8986 7.66534 11.3886 7.66534 11.9986Z" fill="#16AAEE"/>
</svg>
