<svg width="25" height="24" viewBox="0 0 25 24" fill="none" xmlns="http://www.w3.org/2000/svg">
<circle cx="20" cy="4.5" r="2.5" fill="#CDCDD0"/>
<path fill-rule="evenodd" clip-rule="evenodd" d="M19.7702 8.75902C17.5459 8.75902 15.7428 6.95855 15.7428 4.73756C15.7423 4.49001 15.7659 4.243 15.8131 4H7.84636C4.47851 4 2.5 6.00195 2.5 9.3561V16.6615C2.5 20.0156 4.47851 22 7.84636 22H15.1624C18.5215 22 20.5 20.0156 20.5 16.6615V8.68878C20.2594 8.73431 20.0151 8.75782 19.7702 8.75902V8.75902ZM16.5078 11.2088L13.65 14.8966C13.5297 15.0569 13.3494 15.1615 13.1504 15.1863C12.9514 15.2111 12.7508 15.1541 12.5948 15.0283L9.85125 12.8771L7.38031 16.0732C7.20138 16.3573 6.85288 16.485 6.53238 16.3838C6.21187 16.2826 6.0002 15.9781 6.01734 15.6429V15.6429C6.01586 15.4771 6.07177 15.3158 6.17562 15.1863L9.13019 11.3756C9.24898 11.2166 9.42691 11.1121 9.62381 11.0856C9.82071 11.0592 10.02 11.1131 10.1766 11.2351L12.9201 13.3951L15.3295 10.2956C15.4453 10.1358 15.6211 10.0297 15.8167 10.0016C16.0122 9.97346 16.2108 10.0257 16.3671 10.1463C16.6901 10.3989 16.7525 10.8625 16.5078 11.1912V11.2088Z" fill="#16AAEE"/>
</svg>
