<svg width="22" height="22" viewBox="0 0 22 22" fill="none" xmlns="http://www.w3.org/2000/svg">
<path fill-rule="evenodd" clip-rule="evenodd" d="M19.2752 11.0045C19.2752 15.8444 15.3527 19.7661 10.5137 19.7661C5.67468 19.7661 1.75214 15.8444 1.75214 11.0045C1.75214 6.1664 5.67468 2.24298 10.5137 2.24298C15.3527 2.24298 19.2752 6.1664 19.2752 11.0045Z" fill="#EBECFF"/>
<path fill-rule="evenodd" clip-rule="evenodd" d="M13.6448 14.3467C13.53 14.3467 13.4144 14.3169 13.3083 14.2547L9.86856 12.2027C9.67055 12.0836 9.54877 11.8689 9.54877 11.6376V7.21565C9.54877 6.85292 9.84316 6.55853 10.2059 6.55853C10.5686 6.55853 10.863 6.85292 10.863 7.21565V11.2644L13.9821 13.1244C14.2931 13.3111 14.3957 13.7141 14.2099 14.026C14.0864 14.2319 13.8682 14.3467 13.6448 14.3467Z" fill="#3843FF"/>
</svg>
