<svg width="25" height="25" viewBox="0 0 2500 2427" fill="none" xmlns="http://www.w3.org/2000/svg">
<path fill-rule="evenodd" clip-rule="evenodd" d="M252.327 1630.9L186.7 1821.42L119.568 1630.9H36.7563L139.114 1909.48H230.032L332.973 1630.9H252.327ZM753.336 1770.54C753.336 1755.64 757.752 1741.09 766.025 1728.71C774.299 1716.32 786.058 1706.67 799.816 1700.98C813.574 1695.28 828.713 1693.79 843.318 1696.69C857.923 1699.6 871.339 1706.77 881.868 1717.3C892.397 1727.83 899.566 1741.25 902.47 1755.85C905.373 1770.46 903.88 1785.6 898.18 1799.36C892.48 1813.11 882.828 1824.87 870.445 1833.14C858.062 1841.41 843.504 1845.83 828.612 1845.82C808.649 1845.81 789.506 1837.88 775.391 1823.76C761.275 1809.64 753.343 1790.5 753.336 1770.54ZM900.737 1517.31V1654.08C900.582 1654 900.478 1653.9 900.361 1653.81C877.482 1636.91 849.507 1626.38 819.222 1626.38C742.221 1626.38 679.797 1690.69 679.797 1770.06C679.797 1849.39 742.208 1913.71 819.222 1913.71C849.675 1913.71 877.833 1903.66 900.737 1886.6V1909.86H972.33V1517.31H900.737ZM1093.87 1770.54C1094.24 1750.81 1102.33 1732.02 1116.41 1718.2C1130.48 1704.39 1149.42 1696.64 1169.15 1696.64C1188.87 1696.64 1207.81 1704.39 1221.89 1718.2C1235.97 1732.02 1244.06 1750.81 1244.42 1770.54C1244.42 1790.5 1236.48 1809.65 1222.36 1823.77C1208.24 1837.89 1189.09 1845.82 1169.12 1845.82C1149.16 1845.81 1130.02 1837.87 1115.91 1823.76C1101.8 1809.64 1093.87 1790.5 1093.87 1770.54ZM1241.25 1631.2V1654.08L1240.87 1653.81C1218.04 1636.91 1190 1626.38 1159.73 1626.38C1082.73 1626.38 1020.31 1690.69 1020.31 1770.06C1020.31 1849.39 1082.72 1913.71 1159.73 1913.71C1190.18 1913.71 1218.31 1903.66 1241.25 1886.6V1909.86H1312.86V1631.21H1241.25V1631.2ZM1507.99 1631.2H1465.1C1465.1 1631.2 1464.95 1622.28 1464.95 1614.28C1464.95 1596.62 1464.95 1574.2 1493.07 1574.2C1500.29 1574.2 1507.23 1575.42 1507.23 1575.42V1510.62C1507.23 1510.62 1495.48 1510.3 1487.48 1510.62C1421.64 1513.18 1392.65 1535.65 1392.65 1601.46V1631.2H1360.61V1695.41H1392.65V1909.42H1465.1V1695.41H1507.99V1631.2ZM1941.37 1655.48C1961.7 1636.96 1991.39 1625.42 2023.26 1625.42C2088.9 1625.42 2126.48 1667.22 2126.67 1722.42L2126.69 1753.62V1909.49H2052.8V1746.89C2052.8 1705.96 2024.28 1693.49 2001.73 1693.49C1980.95 1693.49 1941.24 1704.95 1943.47 1754.92V1909.49H1869.45V1631.2H1941.37V1655.48ZM2251.6 1792.14C2255.12 1827.12 2284.38 1852.63 2320.23 1852.63C2348.5 1852.63 2367.24 1841.47 2378.36 1821.17H2455.72C2443.34 1864.54 2394.57 1913.58 2322.7 1913.58C2236.22 1913.58 2175.28 1849.18 2175.28 1769.74C2175.28 1690.3 2240.6 1625.88 2322.7 1625.88C2404.83 1625.88 2463.24 1695.89 2463.24 1769.74C2463.24 1785.13 2461.52 1792.04 2461.52 1792.04L2251.6 1792.14ZM2385.17 1738.31C2378.91 1706.71 2352.42 1688.53 2320.21 1688.53C2286.98 1688.53 2260.99 1707.88 2253.51 1738.1L2385.17 1738.31ZM544.354 1635.13C531.227 1638.01 519.473 1645.28 511.036 1655.74C502.599 1666.2 497.982 1679.23 497.948 1692.66C497.948 1693.27 498.104 1694.01 498.117 1694.58C539.957 1703.51 561.059 1731.72 561.059 1768.89C561.059 1810.69 526.884 1844.58 485.095 1844.58C443.307 1844.58 404.268 1809.7 404.268 1758.02C404.268 1694.92 458.364 1635.69 535.47 1633.85C536.845 1633.82 539.049 1633.87 541.293 1633.98C523.824 1627.34 505.288 1623.95 486.6 1623.98C403.879 1623.98 336.825 1688.88 336.825 1768.9C336.825 1848.95 403.879 1913.83 486.6 1913.83C569.334 1913.83 636.388 1848.95 636.388 1768.9C636.388 1708.67 598.399 1657.05 544.354 1635.13ZM1673.9 1625.18C1591.17 1625.18 1524.09 1690.06 1524.09 1770.11C1524.09 1830.33 1562.09 1881.97 1616.18 1903.84C1629.29 1900.96 1641.04 1893.69 1649.47 1883.24C1657.9 1872.78 1662.5 1859.76 1662.53 1846.33C1662.53 1845.72 1662.4 1845.01 1662.37 1844.41C1620.52 1835.51 1599.42 1807.3 1599.42 1770.11C1599.42 1728.28 1633.59 1694.44 1675.38 1694.44C1717.17 1694.44 1756.21 1729.28 1756.21 1780.98C1756.21 1844.1 1702.1 1903.28 1625.02 1905.17C1623.08 1905.18 1621.14 1905.12 1619.2 1905.02C1636.12 1911.45 1654.57 1915.02 1673.89 1915.02C1756.6 1915.02 1823.65 1850.12 1823.65 1770.09C1823.67 1690.06 1756.61 1625.18 1673.9 1625.18ZM1430.95 474.804C1346.75 493.338 1283.32 568.835 1283.32 659.208C1283.32 661.153 1283.77 663.462 1283.85 665.408C1417 693.941 1484.14 784.314 1484.14 903.597C1484.14 1037.56 1375.39 1146.21 1242.41 1146.21C1109.46 1146.21 985.248 1034.44 985.248 868.709C985.248 666.38 1157.37 476.594 1402.64 470.576C1407.08 470.485 1414.07 470.654 1421.24 470.965C1365.68 449.754 1306.7 438.922 1247.22 439.007C984.016 439.007 770.612 647.016 770.612 903.61C770.612 1160.22 984.016 1368.21 1247.22 1368.21C1510.39 1368.21 1723.79 1160.2 1723.79 903.61C1723.79 710.49 1602.93 544.892 1430.95 474.804Z" fill="#CC2131"/>
</svg>
