<svg width="25" height="25" viewBox="0 0 25 25" fill="none" xmlns="http://www.w3.org/2000/svg">
<path fill-rule="evenodd" clip-rule="evenodd" d="M2.50024 11.5785C2.55024 13.9165 2.69024 17.9155 2.71024 18.3565C2.78124 19.2995 3.14224 20.2525 3.70424 20.9245C4.48624 21.8675 5.44924 22.2885 6.79224 22.2885C8.64824 22.2985 10.6942 22.2985 12.6812 22.2985C14.6762 22.2985 16.6122 22.2985 18.2472 22.2885C19.5712 22.2885 20.5642 21.8565 21.3362 20.9245C21.8982 20.2525 22.2592 19.2895 22.3102 18.3565C22.3302 17.9855 22.4302 13.6445 22.4902 11.5785H2.50024Z" fill="#CDCDD0"/>
<path fill-rule="evenodd" clip-rule="evenodd" d="M13.7862 4.00037H11.2042C10.5312 4.00037 9.96924 4.46037 9.80124 5.08137H15.1882C15.0202 4.46037 14.4582 4.00037 13.7862 4.00037ZM10.7112 15.0564C10.6112 15.4194 10.2622 15.6514 9.88424 15.6014C7.33324 15.2454 4.89524 14.3404 2.83724 12.9814C2.62624 12.8434 2.50024 12.6074 2.50024 12.3554V8.88937C2.50024 6.78937 4.21224 5.08137 6.31724 5.08137H8.28424C8.47224 3.62937 9.70224 2.50037 11.2042 2.50037H13.7862C15.2872 2.50037 16.5182 3.62937 16.7062 5.08137H18.6832C20.7822 5.08137 22.4902 6.78937 22.4902 8.88937V12.3554C22.4902 12.6074 22.3632 12.8424 22.1542 12.9814C20.0922 14.3464 17.6442 15.2554 15.0762 15.6104C15.0412 15.6154 15.0072 15.6174 14.9732 15.6174C14.6342 15.6174 14.3312 15.3884 14.2462 15.0524C14.0442 14.2564 13.3212 13.6994 12.4902 13.6994C11.6482 13.6994 10.9332 14.2444 10.7112 15.0564ZM11.7453 17.1782V15.8842C11.7453 15.4702 12.0813 15.1342 12.4953 15.1342C12.9093 15.1342 13.2453 15.4702 13.2453 15.8842V17.1782C13.2453 17.5922 12.9093 17.9282 12.4953 17.9282C12.0813 17.9282 11.7453 17.5922 11.7453 17.1782Z" fill="#16AAEE"/>
</svg>
